<svg xmlns="http://www.w3.org/2000/svg" viewBox="0 0 192 192" width="192" height="192" fill="none" role="img" aria-label="OneIntake"><defs><filter id="soft-shadow" x="-30%" y="-30%" width="160%" height="160%"><feDropShadow dx="0" dy="4" stdDeviation="6" flood-color="#000000" flood-opacity="0.18"/></filter><linearGradient id="chassis-edge" x1="0.3" y1="0" x2="0.7" y2="1"><stop offset="0%" stop-color="#FFFFFF" stop-opacity="0.55"/><stop offset="42%" stop-color="#FFFFFF" stop-opacity="0.15"/><stop offset="100%" stop-color="#FFFFFF" stop-opacity="0.03"/></linearGradient><linearGradient id="beacon-grad" x1="0.12" y1="0" x2="0.88" y2="1"><stop offset="0%" stop-color="#FDE68A"/><stop offset="55%" stop-color="#FBBF24"/><stop offset="100%" stop-color="#D97706"/></linearGradient><filter id="subtle-shadow" x="-20%" y="-20%" width="140%" height="140%"><feDropShadow dx="0" dy="4" stdDeviation="5" flood-color="#000000" flood-opacity="0.25"/></filter><linearGradient id="intake-beam" x1="36" y1="96" x2="156" y2="96" gradientUnits="userSpaceOnUse"><stop offset="0%" stop-color="#38BDF8"/><stop offset="55%" stop-color="#818CF8"/><stop offset="100%" stop-color="#A855F7"/></linearGradient><linearGradient id="intake-sheet" x1="52" y1="34" x2="140" y2="158" gradientUnits="userSpaceOnUse"><stop offset="0%" stop-color="#FFFFFF"/><stop offset="60%" stop-color="#F1F5FF"/><stop offset="100%" stop-color="#DDE3FB"/></linearGradient><linearGradient id="intake-read" x1="96" y1="36" x2="96" y2="96" gradientUnits="userSpaceOnUse"><stop offset="0%" stop-color="#818CF8" stop-opacity="0"/><stop offset="100%" stop-color="#818CF8" stop-opacity="0.28"/></linearGradient></defs><rect x="54" y="34" width="84" height="120" rx="14" fill="url(#intake-sheet)" filter="url(#soft-shadow)"/><rect x="54.9" y="34.9" width="82.2" height="118.2" rx="13.1" stroke="#C7D2FE" stroke-width="1.8"/><path d="M 54 60 L 54 48 C 54 40.3 60.3 34 68 34 L 124 34 C 131.7 34 138 40.3 138 48 L 138 96 L 54 96 Z" fill="url(#intake-read)"/><g fill="#6366F1"><rect x="68" y="52" width="48" height="7" rx="3.5" fill-opacity="0.55"/><rect x="68" y="66" width="36" height="7" rx="3.5" fill-opacity="0.4"/><rect x="68" y="112" width="44" height="7" rx="3.5" fill-opacity="0.22"/><rect x="68" y="126" width="30" height="7" rx="3.5" fill-opacity="0.22"/></g><rect x="36" y="89" width="120" height="14" rx="7" fill="url(#intake-beam)" filter="url(#subtle-shadow)"/><circle cx="150" cy="96" r="8.5" fill="url(#beacon-grad)"/><circle cx="150" cy="96" r="3.40" fill="#FFFFFF"/></svg>
