<svg xmlns="http://www.w3.org/2000/svg" viewBox="0 0 192 192" width="192" height="192" fill="none" role="img" aria-label="OneIntake"><defs><filter id="soft-shadow" x="-30%" y="-30%" width="160%" height="160%"><feDropShadow dx="0" dy="4" stdDeviation="6" flood-color="#000000" flood-opacity="0.18"/></filter><linearGradient id="chassis-edge" x1="0.3" y1="0" x2="0.7" y2="1"><stop offset="0%" stop-color="#FFFFFF" stop-opacity="0.55"/><stop offset="42%" stop-color="#FFFFFF" stop-opacity="0.15"/><stop offset="100%" stop-color="#FFFFFF" stop-opacity="0.03"/></linearGradient><linearGradient id="beacon-grad" x1="0.12" y1="0" x2="0.88" y2="1"><stop offset="0%" stop-color="#FDE68A"/><stop offset="55%" stop-color="#FBBF24"/><stop offset="100%" stop-color="#D97706"/></linearGradient><filter id="subtle-shadow" x="-20%" y="-20%" width="140%" height="140%"><feDropShadow dx="0" dy="4" stdDeviation="5" flood-color="#000000" flood-opacity="0.25"/></filter><linearGradient id="intake-body" x1="36" y1="96" x2="156" y2="160" gradientUnits="userSpaceOnUse"><stop offset="0%" stop-color="#FEF08A"/><stop offset="45%" stop-color="#EAB308"/><stop offset="100%" stop-color="#713F12"/></linearGradient><linearGradient id="intake-arrow" x1="96" y1="40" x2="96" y2="124" gradientUnits="userSpaceOnUse"><stop offset="0%" stop-color="#FEF9C3"/><stop offset="55%" stop-color="#FACC15"/><stop offset="100%" stop-color="#CA8A04"/></linearGradient></defs><path d="M 40 100 L 40 126 C 40 141.5 52.5 154 68 154 L 124 154 C 139.5 154 152 141.5 152 126 L 152 100" stroke="url(#intake-body)" stroke-width="15" stroke-linecap="round" stroke-linejoin="round" fill="none" filter="url(#soft-shadow)"/><g stroke="url(#intake-arrow)" stroke-width="17" stroke-linecap="round" stroke-linejoin="round" fill="none" filter="url(#soft-shadow)"><path d="M 96 44 L 96 120"/><path d="M 68 94 L 96 122 L 124 94"/></g><circle cx="96" cy="44" r="8.5" fill="url(#beacon-grad)"/><circle cx="96" cy="44" r="3.40" fill="#FFFFFF"/></svg>
